<svg width="33" height="33" viewBox="0 0 33 33" fill="none" xmlns="http://www.w3.org/2000/svg">
<path fill-rule="evenodd" clip-rule="evenodd" d="M32.3402 16.8751C32.3402 15.7051 32.2352 14.5801 32.0402 13.5001H16.5001V19.8826H25.3802C24.9977 21.9452 23.8352 23.6927 22.0877 24.8627V29.0027H27.4202C30.5402 26.1302 32.3402 21.9002 32.3402 16.8751Z" fill="#4285F4"/>
<path fill-rule="evenodd" clip-rule="evenodd" d="M16.5 33C20.955 33 24.6901 31.5225 27.4201 29.0025L22.0875 24.8624C20.61 25.8525 18.72 26.4375 16.5 26.4375C12.2025 26.4375 8.56495 23.5349 7.26744 19.6349H1.7549V23.9099C4.46992 29.3025 10.05 33 16.5 33Z" fill="#34A853"/>
<path fill-rule="evenodd" clip-rule="evenodd" d="M7.26755 19.6352C6.93755 18.6452 6.75005 17.5877 6.75005 16.5002C6.75005 15.4127 6.93755 14.3552 7.26755 13.3652V9.09016H1.75501C0.637505 11.3177 0 13.8377 0 16.5002C0 19.1627 0.637505 21.6827 1.75501 23.9103L7.26755 19.6352Z" fill="#FBBC05"/>
<path fill-rule="evenodd" clip-rule="evenodd" d="M16.5 6.56255C18.9225 6.56255 21.0975 7.39505 22.8076 9.03007L27.5401 4.29753C24.6826 1.63501 20.9475 0 16.5 0C10.05 0 4.46992 3.69753 1.7549 9.09007L7.26744 13.3651C8.56495 9.46507 12.2025 6.56255 16.5 6.56255Z" fill="#EA4335"/>
</svg>
