<svg width="25" height="24" viewBox="0 0 25 24" fill="none" xmlns="http://www.w3.org/2000/svg">
<path opacity="0.4" d="M16.7976 22H7.45842C4.73926 22 2.52667 19.8311 2.52667 17.1646V11.8354C2.52667 9.16894 4.73926 7 7.45842 7H16.7976C19.5168 7 21.7293 9.16894 21.7293 11.8354V17.1646C21.7293 19.8311 19.5168 22 16.7976 22Z" fill="#8D8D8D"/>
<path d="M15.9232 10C15.5077 10 15.1704 9.67634 15.1704 9.27754V6.35689C15.1704 4.75111 13.8093 3.44491 12.1371 3.44491C11.3672 3.44491 10.5592 3.7416 9.984 4.28778C9.40785 4.83588 9.08866 5.56508 9.08565 6.34341V9.27754C9.08565 9.67634 8.74838 10 8.33283 10C7.91728 10 7.58002 9.67634 7.58002 9.27754V6.35689C7.58504 5.17303 8.06282 4.08067 8.92404 3.26285C9.78426 2.44311 10.8964 2.03179 12.1401 2C14.6394 2 16.676 3.95449 16.676 6.35689V9.27754C16.676 9.67634 16.3388 10 15.9232 10Z" fill="#8D8D8D"/>
</svg>
