<svg width="25" height="24" viewBox="0 0 25 24" fill="none" xmlns="http://www.w3.org/2000/svg">
<path d="M19.9804 11.6453C19.2421 10.7923 18.9066 10.0531 18.9066 8.79716V8.37013C18.9066 6.73354 18.5259 5.67907 17.6983 4.62459C16.4226 2.98699 14.2751 2 12.1727 2H12.0833C10.0252 2 7.94494 2.94167 6.64717 4.5128C5.77429 5.58842 5.3494 6.68822 5.3494 8.37013V8.79716C5.3494 10.0531 5.03601 10.7923 4.27563 11.6453C3.71615 12.2738 3.53735 13.0815 3.53735 13.9557C3.53735 14.8309 3.82764 15.6598 4.41023 16.3336C5.17061 17.1413 6.24438 17.6569 7.34125 17.7466C8.92931 17.9258 10.5174 17.9933 12.1285 17.9933C13.7387 17.9933 15.3267 17.8805 16.9158 17.7466C18.0117 17.6569 19.0854 17.1413 19.8458 16.3336C20.4274 15.6598 20.7187 14.8309 20.7187 13.9557C20.7187 13.0815 20.5399 12.2738 19.9804 11.6453Z" fill="#8D8D8D"/>
<path opacity="0.4" d="M14.1581 19.2284C13.6529 19.1216 10.5742 19.1216 10.069 19.2284C9.63706 19.3271 9.16998 19.5567 9.16998 20.0602C9.19509 20.5406 9.47936 20.9647 9.87311 21.2336L9.8721 21.2346C10.3814 21.6273 10.979 21.8771 11.6048 21.9668C11.9383 22.0121 12.2778 22.0101 12.6233 21.9668C13.2481 21.8771 13.8458 21.6273 14.355 21.2346L14.354 21.2336C14.7478 20.9647 15.032 20.5406 15.0571 20.0602C15.0571 19.5567 14.5901 19.3271 14.1581 19.2284Z" fill="#8D8D8D"/>
</svg>
