<svg width="25" height="23" viewBox="0 0 25 23" fill="none" xmlns="http://www.w3.org/2000/svg">
<path d="M9.3273 19.9162V16.9771C9.32728 16.2323 9.97192 15.6273 10.7704 15.6226H13.7023C14.5043 15.6226 15.1545 16.229 15.1545 16.9771V19.9077C15.1545 20.5536 15.7133 21.0786 16.4058 21.0833H18.4061C19.3403 21.0856 20.237 20.741 20.8985 20.1257C21.5599 19.5103 21.9316 18.6748 21.9316 17.8035V9.45477C21.9316 8.75091 21.5971 8.08326 21.0183 7.63169L14.2229 2.56284C13.035 1.67624 11.3385 1.70488 10.1859 2.63099L3.53662 7.63169C2.93042 8.06995 2.5681 8.73958 2.55019 9.45477V17.7949C2.55019 19.6111 4.12864 21.0833 6.07575 21.0833H8.03033C8.36377 21.0856 8.6844 20.9636 8.92104 20.7445C9.15769 20.5254 9.29077 20.2272 9.29076 19.9162H9.3273Z" fill="#C67C4E"/>
</svg>
