<svg width="25" height="23" viewBox="0 0 25 23" fill="none" xmlns="http://www.w3.org/2000/svg">
<path opacity="0.4" d="M12.0124 20.9276C9.6835 19.5762 7.5186 17.9827 5.55726 16.1763C4.17263 14.8865 3.11518 13.3117 2.4657 11.5721C1.30523 8.17959 2.65609 4.30241 6.42761 3.15138C8.4183 2.56405 10.5833 2.92459 12.2481 4.12067C13.9135 2.92593 16.0778 2.5655 18.0686 3.15138C21.8401 4.30241 23.2 8.17959 22.0396 11.5721C21.3954 13.3101 20.3442 14.8847 18.9661 16.1763C17.003 17.9807 14.8383 19.574 12.511 20.9276L12.2572 21.0833L12.0124 20.9276Z" fill="#8D8D8D"/>
<path d="M12.252 21.0833L12.0124 20.9275C9.68064 19.5763 7.51272 17.9828 5.5482 16.1763C4.15701 14.8883 3.09326 13.3133 2.43851 11.5721C1.2871 8.17958 2.63796 4.3024 6.40949 3.15137C8.40017 2.56404 10.5938 2.92486 12.252 4.13095V21.0833Z" fill="#8D8D8D"/>
<path d="M18.5964 9.58258C18.3915 9.57019 18.2007 9.47398 18.0686 9.31649C17.9366 9.15901 17.875 8.95409 17.8981 8.74973C17.9203 8.07664 17.5126 7.46398 16.884 7.2256C16.4853 7.12337 16.2439 6.71778 16.3437 6.31779C16.4383 5.92424 16.8306 5.67953 17.2248 5.76811C17.2746 5.77587 17.3225 5.79281 17.3661 5.81808C18.6266 6.2738 19.4427 7.5003 19.3778 8.84134C19.3757 9.0446 19.2914 9.23831 19.1441 9.37806C18.9967 9.51781 18.7991 9.59163 18.5964 9.58258Z" fill="#8D8D8D"/>
</svg>
